<svg width="500" height="300" viewBox="0 0 500 300" xmlns="http://www.w3.org/2000/svg">
  <!-- City skyline -->
  <rect x="50" y="100" width="40" height="150" fill="#5a67d8" />
  <rect x="100" y="150" width="40" height="100" fill="#4c51bf" />
  <rect x="150" y="80" width="40" height="170" fill="#5a67d8" />
  <rect x="200" y="120" width="40" height="130" fill="#4c51bf" />
  <rect x="250" y="60" width="40" height="190" fill="#5a67d8" />
  <rect x="300" y="130" width="40" height="120" fill="#4c51bf" />
  <rect x="350" y="100" width="40" height="150" fill="#5a67d8" />
  <rect x="400" y="110" width="40" height="140" fill="#4c51bf" />
  
  <!-- Windows -->
  <rect x="60" y="120" width="20" height="15" fill="#f7fafc" />
  <rect x="60" y="150" width="20" height="15" fill="#f7fafc" />
  <rect x="60" y="180" width="20" height="15" fill="#f7fafc" />
  <rect x="60" y="210" width="20" height="15" fill="#f7fafc" />
  
  <rect x="110" y="170" width="20" height="15" fill="#f7fafc" />
  <rect x="110" y="200" width="20" height="15" fill="#f7fafc" />
  
  <rect x="160" y="100" width="20" height="15" fill="#f7fafc" />
  <rect x="160" y="130" width="20" height="15" fill="#f7fafc" />
  <rect x="160" y="160" width="20" height="15" fill="#f7fafc" />
  <rect x="160" y="190" width="20" height="15" fill="#f7fafc" />
  <rect x="160" y="220" width="20" height="15" fill="#f7fafc" />
  
  <rect x="210" y="140" width="20" height="15" fill="#f7fafc" />
  <rect x="210" y="170" width="20" height="15" fill="#f7fafc" />
  <rect x="210" y="200" width="20" height="15" fill="#f7fafc" />
  
  <rect x="260" y="80" width="20" height="15" fill="#f7fafc" />
  <rect x="260" y="110" width="20" height="15" fill="#f7fafc" />
  <rect x="260" y="140" width="20" height="15" fill="#f7fafc" />
  <rect x="260" y="170" width="20" height="15" fill="#f7fafc" />
  <rect x="260" y="200" width="20" height="15" fill="#f7fafc" />
  <rect x="260" y="230" width="20" height="15" fill="#f7fafc" />
  
  <rect x="310" y="150" width="20" height="15" fill="#f7fafc" />
  <rect x="310" y="180" width="20" height="15" fill="#f7fafc" />
  <rect x="310" y="210" width="20" height="15" fill="#f7fafc" />
  
  <rect x="360" y="120" width="20" height="15" fill="#f7fafc" />
  <rect x="360" y="150" width="20" height="15" fill="#f7fafc" />
  <rect x="360" y="180" width="20" height="15" fill="#f7fafc" />
  <rect x="360" y="210" width="20" height="15" fill="#f7fafc" />
  
  <rect x="410" y="130" width="20" height="15" fill="#f7fafc" />
  <rect x="410" y="160" width="20" height="15" fill="#f7fafc" />
  <rect x="410" y="190" width="20" height="15" fill="#f7fafc" />
  
  <!-- Ground -->
  <rect x="0" y="250" width="500" height="50" fill="#4a5568" />
  
  <!-- Road -->
  <rect x="0" y="270" width="500" height="10" fill="#2d3748" />
  <rect x="40" y="275" width="20" height="2" fill="#f7fafc" />
  <rect x="100" y="275" width="20" height="2" fill="#f7fafc" />
  <rect x="160" y="275" width="20" height="2" fill="#f7fafc" />
  <rect x="220" y="275" width="20" height="2" fill="#f7fafc" />
  <rect x="280" y="275" width="20" height="2" fill="#f7fafc" />
  <rect x="340" y="275" width="20" height="2" fill="#f7fafc" />
  <rect x="400" y="275" width="20" height="2" fill="#f7fafc" />
  <rect x="460" y="275" width="20" height="2" fill="#f7fafc" />
  
  <!-- Pothole -->
  <ellipse cx="185" cy="273" rx="8" ry="3" fill="#1a202c" />
  <ellipse cx="320" cy="277" rx="6" ry="2" fill="#1a202c" />
  
  <!-- Sun/Moon -->
  <circle cx="380" cy="50" r="30" fill="#f6e05e" />
  
  <!-- Cloud -->
  <ellipse cx="180" cy="40" rx="35" ry="20" fill="#e2e8f0" />
  <ellipse cx="150" cy="35" rx="20" ry="15" fill="#e2e8f0" />
  <ellipse cx="210" cy="30" rx="25" ry="15" fill="#e2e8f0" />
  
  <!-- Person with phone -->
  <circle cx="140" cy="230" r="10" fill="#ed8936" />
  <rect x="135" y="240" width="10" height="20" fill="#ed8936" />
  <rect x="130" y="245" width="5" height="15" fill="#ed8936" />
  <rect x="145" y="245" width="5" height="15" fill="#ed8936" />
  <rect x="135" y="260" width="5" height="15" fill="#ed8936" />
  <rect x="140" y="260" width="5" height="15" fill="#ed8936" />
  <rect x="145" y="240" width="10" height="6" fill="#4299e1" />
</svg> 