<?xml version="1.0" encoding="UTF-8"?>
<svg width="800" height="400" viewBox="0 0 800 400" xmlns="http://www.w3.org/2000/svg">
    <!-- Background -->
    <rect width="800" height="400" fill="#f8fafc"/>
    
    <!-- City Buildings -->
    <g transform="translate(50, 200)">
        <!-- Building 1 -->
        <rect x="0" y="0" width="100" height="150" fill="#00bcd4" opacity="0.8"/>
        <rect x="20" y="20" width="20" height="20" fill="white" opacity="0.6"/>
        <rect x="60" y="20" width="20" height="20" fill="white" opacity="0.6"/>
        <rect x="20" y="60" width="20" height="20" fill="white" opacity="0.6"/>
        <rect x="60" y="60" width="20" height="20" fill="white" opacity="0.6"/>
        
        <!-- Building 2 -->
        <rect x="120" y="-30" width="120" height="180" fill="#00e5ff" opacity="0.8"/>
        <rect x="140" y="10" width="30" height="30" fill="white" opacity="0.6"/>
        <rect x="190" y="10" width="30" height="30" fill="white" opacity="0.6"/>
        <rect x="140" y="60" width="30" height="30" fill="white" opacity="0.6"/>
        <rect x="190" y="60" width="30" height="30" fill="white" opacity="0.6"/>
        
        <!-- Building 3 -->
        <rect x="260" y="0" width="100" height="150" fill="#00bcd4" opacity="0.8"/>
        <rect x="280" y="20" width="20" height="20" fill="white" opacity="0.6"/>
        <rect x="320" y="20" width="20" height="20" fill="white" opacity="0.6"/>
        <rect x="280" y="60" width="20" height="20" fill="white" opacity="0.6"/>
        <rect x="320" y="60" width="20" height="20" fill="white" opacity="0.6"/>
    </g>
    
    <!-- People Group -->
    <g transform="translate(500, 250)">
        <!-- Person 1 -->
        <circle cx="0" cy="-30" r="20" fill="#00bcd4"/>
        <rect x="-10" y="-10" width="20" height="40" fill="#00bcd4"/>
        
        <!-- Person 2 -->
        <circle cx="40" cy="-30" r="20" fill="#00e5ff"/>
        <rect x="30" y="-10" width="20" height="40" fill="#00e5ff"/>
        
        <!-- Person 3 -->
        <circle cx="80" cy="-30" r="20" fill="#00bcd4"/>
        <rect x="70" y="-10" width="20" height="40" fill="#00bcd4"/>
    </g>
    
    <!-- Decorative Elements -->
    <circle cx="100" cy="100" r="30" fill="#00e5ff" opacity="0.2"/>
    <circle cx="700" cy="150" r="40" fill="#00bcd4" opacity="0.2"/>
    <circle cx="400" cy="80" r="25" fill="#00e5ff" opacity="0.2"/>
</svg> 