<?xml version="1.0" encoding="UTF-8"?>
<svg width="800" height="400" viewBox="0 0 800 400" xmlns="http://www.w3.org/2000/svg">
    <!-- Background -->
    <rect width="800" height="400" fill="#f8fafc"/>
    
    <!-- Admin Controls -->
    <g transform="translate(200, 200)">
        <!-- Control Panel -->
        <rect x="-80" y="-100" width="160" height="120" rx="10" fill="#00bcd4" opacity="0.8"/>
        <rect x="-60" y="-80" width="120" height="80" rx="5" fill="white" opacity="0.6"/>
        
        <!-- Control Buttons -->
        <circle cx="-40" cy="-40" r="15" fill="#00e5ff"/>
        <circle cx="0" cy="-40" r="15" fill="#00e5ff"/>
        <circle cx="40" cy="-40" r="15" fill="#00e5ff"/>
    </g>
    
    <!-- Statistics and Monitoring -->
    <g transform="translate(400, 200)">
        <!-- Pie Chart -->
        <g transform="translate(-100, -80)">
            <circle cx="0" cy="0" r="50" fill="#00bcd4" opacity="0.8"/>
            <path d="M0,0 L0,-50 A50,50 0 0,1 43.3,25 Z" fill="white" opacity="0.6"/>
            <path d="M0,0 L43.3,25 A50,50 0 0,1 -43.3,25 Z" fill="#00e5ff" opacity="0.6"/>
        </g>
        
        <!-- Activity Bars -->
        <g transform="translate(50, -80)">
            <rect x="0" y="0" width="20" height="100" rx="5" fill="#00bcd4" opacity="0.8"/>
            <rect x="30" y="20" width="20" height="80" rx="5" fill="#00e5ff" opacity="0.8"/>
            <rect x="60" y="40" width="20" height="60" rx="5" fill="#00bcd4" opacity="0.8"/>
            <rect x="90" y="10" width="20" height="90" rx="5" fill="#00e5ff" opacity="0.8"/>
        </g>
    </g>
    
    <!-- Decorative Elements -->
    <circle cx="100" cy="100" r="30" fill="#00e5ff" opacity="0.2"/>
    <circle cx="700" cy="150" r="40" fill="#00bcd4" opacity="0.2"/>
    <circle cx="400" cy="80" r="25" fill="#00e5ff" opacity="0.2"/>
</svg> 