<?xml version="1.0" encoding="UTF-8"?>
<svg width="800" height="400" viewBox="0 0 800 400" xmlns="http://www.w3.org/2000/svg">
    <!-- Background -->
    <rect width="800" height="400" fill="#f8fafc"/>
    
    <!-- Registration Form -->
    <g transform="translate(400, 200)">
        <!-- Form Container -->
        <rect x="-250" y="-150" width="500" height="300" rx="15" fill="#00bcd4" opacity="0.8"/>
        
        <!-- Form Fields -->
        <g transform="translate(-200, -120)">
            <!-- Name Fields -->
            <g transform="translate(0, 0)">
                <!-- First Name -->
                <rect x="0" y="0" width="180" height="40" rx="5" fill="white" opacity="0.6"/>
                <circle cx="20" cy="20" r="10" fill="#00e5ff"/>
                <path d="M15,20 L25,20 M20,15 L20,25" stroke="white" stroke-width="2"/>
                <rect x="40" y="15" width="120" height="10" rx="2" fill="#00bcd4"/>
                
                <!-- Last Name -->
                <rect x="200" y="0" width="180" height="40" rx="5" fill="white" opacity="0.6"/>
                <circle cx="220" cy="20" r="10" fill="#00e5ff"/>
                <path d="M215,20 L225,20 M220,15 L220,25" stroke="white" stroke-width="2"/>
                <rect x="240" y="15" width="120" height="10" rx="2" fill="#00bcd4"/>
            </g>
            
            <!-- Email Field -->
            <g transform="translate(0, 60)">
                <rect x="0" y="0" width="380" height="40" rx="5" fill="white" opacity="0.6"/>
                <circle cx="20" cy="20" r="10" fill="#00e5ff"/>
                <path d="M15,20 L25,20 M20,15 L20,25" stroke="white" stroke-width="2"/>
                <rect x="40" y="15" width="320" height="10" rx="2" fill="#00bcd4"/>
            </g>
            
            <!-- Password Fields -->
            <g transform="translate(0, 120)">
                <!-- Password -->
                <rect x="0" y="0" width="180" height="40" rx="5" fill="white" opacity="0.6"/>
                <circle cx="20" cy="20" r="10" fill="#00e5ff"/>
                <path d="M15,15 L25,15 M15,20 L25,20 M15,25 L25,25" stroke="white" stroke-width="2"/>
                <rect x="40" y="15" width="120" height="10" rx="2" fill="#00bcd4"/>
                
                <!-- Confirm Password -->
                <rect x="200" y="0" width="180" height="40" rx="5" fill="white" opacity="0.6"/>
                <circle cx="220" cy="20" r="10" fill="#00e5ff"/>
                <path d="M215,15 L225,15 M215,20 L225,20 M215,25 L225,25" stroke="white" stroke-width="2"/>
                <rect x="240" y="15" width="120" height="10" rx="2" fill="#00bcd4"/>
            </g>
        </g>
        
        <!-- Terms and Conditions -->
        <g transform="translate(-200, 40)">
            <rect x="0" y="0" width="20" height="20" rx="3" fill="white" opacity="0.6"/>
            <text x="30" y="15" fill="white" font-size="14">I agree to the Terms and Conditions</text>
        </g>
        
        <!-- Register Button -->
        <g transform="translate(-100, 80)">
            <rect x="0" y="0" width="200" height="50" rx="25" fill="#00e5ff"/>
            <text x="100" y="30" text-anchor="middle" fill="white" font-size="16" font-weight="bold">Register</text>
        </g>
        
        <!-- Login Link -->
        <g transform="translate(0, 150)">
            <text x="0" y="0" text-anchor="middle" fill="white" font-size="14">Already have an account? </text>
            <text x="150" y="0" text-anchor="middle" fill="#00e5ff" font-size="14" font-weight="bold">Login</text>
        </g>
    </g>
    
    <!-- Decorative Elements -->
    <circle cx="100" cy="100" r="30" fill="#00e5ff" opacity="0.2"/>
    <circle cx="700" cy="150" r="40" fill="#00bcd4" opacity="0.2"/>
    <circle cx="400" cy="80" r="25" fill="#00e5ff" opacity="0.2"/>
    
    <!-- User Profile Icons -->
    <g transform="translate(150, 200)">
        <!-- User Icon -->
        <circle cx="0" cy="0" r="30" fill="#00bcd4" opacity="0.8"/>
        <circle cx="0" cy="-10" r="10" fill="white"/>
        <path d="M-15,20 A15,15 0 0,1 15,20" fill="white"/>
    </g>
    
    <g transform="translate(650, 200)">
        <!-- Document Icon -->
        <circle cx="0" cy="0" r="30" fill="#00bcd4" opacity="0.8"/>
        <rect x="-10" y="-15" width="20" height="30" rx="2" fill="white"/>
        <path d="M-5,-5 L5,-5 M-5,0 L5,0 M-5,5 L5,5" stroke="#00bcd4" stroke-width="2"/>
    </g>
</svg> 