<?xml version="1.0" encoding="UTF-8"?>
<svg width="800" height="400" viewBox="0 0 800 400" xmlns="http://www.w3.org/2000/svg">
    <!-- Background -->
    <rect width="800" height="400" fill="#f8fafc"/>
    
    <!-- Shield -->
    <g transform="translate(300, 150)">
        <path d="M0,-100 L100,-50 L100,50 L0,100 L-100,50 L-100,-50 Z" fill="#00bcd4" opacity="0.8"/>
        <path d="M0,-70 L70,-35 L70,35 L0,70 L-70,35 L-70,-35 Z" fill="white" opacity="0.6"/>
        <circle cx="0" cy="0" r="30" fill="#00e5ff"/>
        <text x="0" y="10" text-anchor="middle" fill="white" font-size="24" font-weight="bold">CS</text>
    </g>
    
    <!-- Key -->
    <g transform="translate(500, 200)">
        <!-- Key Head -->
        <circle cx="0" cy="0" r="20" fill="#00bcd4"/>
        <circle cx="0" cy="0" r="10" fill="white" opacity="0.6"/>
        
        <!-- Key Shaft -->
        <rect x="0" y="-5" width="60" height="10" fill="#00e5ff"/>
        
        <!-- Key Teeth -->
        <rect x="20" y="-15" width="10" height="10" fill="#00bcd4"/>
        <rect x="40" y="5" width="10" height="10" fill="#00bcd4"/>
    </g>
    
    <!-- Lock -->
    <g transform="translate(200, 200)">
        <!-- Lock Body -->
        <rect x="-30" y="-40" width="60" height="60" rx="10" fill="#00bcd4"/>
        <rect x="-20" y="-30" width="40" height="30" rx="5" fill="white" opacity="0.6"/>
        
        <!-- Lock Shackle -->
        <path d="M-20,-40 L-20,-60 L20,-60 L20,-40" stroke="#00e5ff" stroke-width="8" fill="none"/>
    </g>
    
    <!-- Decorative Elements -->
    <circle cx="100" cy="100" r="30" fill="#00e5ff" opacity="0.2"/>
    <circle cx="700" cy="150" r="40" fill="#00bcd4" opacity="0.2"/>
    <circle cx="400" cy="80" r="25" fill="#00e5ff" opacity="0.2"/>
</svg> 