<?xml version="1.0" encoding="UTF-8"?>
<svg width="800" height="400" viewBox="0 0 800 400" xmlns="http://www.w3.org/2000/svg">
    <!-- Background -->
    <rect width="800" height="400" fill="#f8fafc"/>
    
    <!-- Envelope -->
    <g transform="translate(300, 150)">
        <path d="M0,0 L200,0 L200,150 L0,150 Z" fill="#00bcd4" opacity="0.8"/>
        <path d="M0,0 L100,75 L200,0" fill="white" opacity="0.6"/>
        <path d="M0,150 L100,75 L200,150" fill="white" opacity="0.6"/>
    </g>
    
    <!-- Contact Icons -->
    <g transform="translate(100, 200)">
        <!-- Phone -->
        <rect x="0" y="0" width="60" height="100" rx="10" fill="#00e5ff"/>
        <circle cx="30" cy="30" r="15" fill="white" opacity="0.6"/>
        <rect x="20" y="60" width="20" height="30" rx="5" fill="white" opacity="0.6"/>
    </g>
    
    <g transform="translate(600, 200)">
        <!-- Location Pin -->
        <path d="M0,0 L40,0 L20,60 Z" fill="#00bcd4"/>
        <circle cx="20" cy="20" r="10" fill="white" opacity="0.6"/>
    </g>
    
    <!-- Decorative Elements -->
    <circle cx="150" cy="100" r="30" fill="#00e5ff" opacity="0.2"/>
    <circle cx="650" cy="100" r="40" fill="#00bcd4" opacity="0.2"/>
    <circle cx="400" cy="80" r="25" fill="#00e5ff" opacity="0.2"/>
</svg> 