<?xml version="1.0" encoding="UTF-8"?>
<svg width="800" height="400" viewBox="0 0 800 400" xmlns="http://www.w3.org/2000/svg">
    <!-- Background -->
    <rect width="800" height="400" fill="#f8fafc"/>
    
    <!-- City Skyline -->
    <g transform="translate(50, 200)">
        <!-- Modern Buildings -->
        <rect x="0" y="0" width="120" height="180" fill="#00bcd4" opacity="0.8"/>
        <rect x="20" y="20" width="30" height="30" fill="white" opacity="0.6"/>
        <rect x="70" y="20" width="30" height="30" fill="white" opacity="0.6"/>
        <rect x="20" y="70" width="30" height="30" fill="white" opacity="0.6"/>
        <rect x="70" y="70" width="30" height="30" fill="white" opacity="0.6"/>
        
        <rect x="140" y="-40" width="150" height="220" fill="#00e5ff" opacity="0.8"/>
        <rect x="160" y="0" width="40" height="40" fill="white" opacity="0.6"/>
        <rect x="220" y="0" width="40" height="40" fill="white" opacity="0.6"/>
        <rect x="160" y="60" width="40" height="40" fill="white" opacity="0.6"/>
        <rect x="220" y="60" width="40" height="40" fill="white" opacity="0.6"/>
        
        <rect x="310" y="0" width="120" height="180" fill="#00bcd4" opacity="0.8"/>
        <rect x="330" y="20" width="30" height="30" fill="white" opacity="0.6"/>
        <rect x="380" y="20" width="30" height="30" fill="white" opacity="0.6"/>
        <rect x="330" y="70" width="30" height="30" fill="white" opacity="0.6"/>
        <rect x="380" y="70" width="30" height="30" fill="white" opacity="0.6"/>
    </g>
    
    <!-- Civic Service Icons -->
    <g transform="translate(500, 250)">
        <!-- Garbage Truck -->
        <rect x="0" y="0" width="80" height="40" rx="5" fill="#00bcd4"/>
        <circle cx="20" cy="40" r="15" fill="#00e5ff"/>
        <circle cx="60" cy="40" r="15" fill="#00e5ff"/>
        <rect x="10" y="10" width="60" height="20" fill="white" opacity="0.6"/>
        
        <!-- Water Service -->
        <g transform="translate(100, 0)">
            <path d="M0,0 L40,0 L20,40 Z" fill="#00bcd4"/>
            <circle cx="20" cy="20" r="10" fill="white" opacity="0.6"/>
        </g>
        
        <!-- Street Light -->
        <g transform="translate(160, 0)">
            <rect x="0" y="0" width="10" height="40" fill="#00e5ff"/>
            <circle cx="5" cy="0" r="15" fill="#00bcd4"/>
        </g>
    </g>
    
    <!-- Decorative Elements -->
    <circle cx="100" cy="100" r="30" fill="#00e5ff" opacity="0.2"/>
    <circle cx="700" cy="150" r="40" fill="#00bcd4" opacity="0.2"/>
    <circle cx="400" cy="80" r="25" fill="#00e5ff" opacity="0.2"/>
</svg> 